<svg width="640" height="485" viewBox="0 0 640 485" xmlns="http://www.w3.org/2000/svg">
  <defs>
    <pattern id="stats-scanlines" width="3" height="3" patternUnits="userSpaceOnUse">
      <rect width="3" height="1.4" fill="#000000" opacity="0.06"/>
    </pattern>
    <radialGradient id="stats-vignette" cx="50%" cy="35%" r="75%">
      <stop offset="0%" stop-color="#d1d5db" stop-opacity="0"/>
      <stop offset="100%" stop-color="#d1d5db" stop-opacity="0.12"/>
    </radialGradient>
    <filter id="glow" x="-60%" y="-60%" width="220%" height="220%">
      <feGaussianBlur stdDeviation="2.2" result="blur"/>
      <feMerge>
        <feMergeNode in="blur"/>
        <feMergeNode in="SourceGraphic"/>
      </feMerge>
    </filter>
  </defs>
  <rect x="0" y="0" width="640" height="485" rx="12" fill="#ffffff" stroke="#d1d5db" stroke-width="1"/>
  <circle cx="24" cy="20" r="6" fill="#ff5f56"/>
  <circle cx="44" cy="20" r="6" fill="#ffbd2e"/>
  <circle cx="64" cy="20" r="6" fill="#27c93f"/>
  <g opacity="0">
    <animate attributeName="opacity" from="0" to="1" begin="0.05s" dur="0.35s" fill="freeze"/>
    <text x="28" y="56" fill="#2563eb" font-family="'Cascadia Code','Fira Code','JetBrains Mono',Consolas,monospace" font-size="14" font-weight="600" filter="url(#glow)">aryan@kumar — live stats</text>
  </g>
  <g opacity="0">
    <animate attributeName="opacity" from="0" to="1" begin="0.10s" dur="0.35s" fill="freeze"/>
    <text x="612" y="56" text-anchor="end" fill="#111827" font-family="'Cascadia Code','Fira Code','JetBrains Mono',Consolas,monospace" font-size="12">:atom: Revolving</text>
  </g>
  <g opacity="0">
    <animate attributeName="opacity" from="0" to="1" begin="0.15s" dur="0.35s" fill="freeze"/>
    <text x="28" y="70" fill="#d1d5db" font-family="'Cascadia Code','Fira Code','JetBrains Mono',Consolas,monospace" font-size="14">─────────────────────────────────────────────────────────────────────</text>
  </g>
  <g opacity="0">
    <animate attributeName="opacity" from="0" to="1" begin="0.20s" dur="0.35s" fill="freeze"/>
    <text x="28" y="100" fill="#d1d5db" font-family="'Cascadia Code','Fira Code','JetBrains Mono',Consolas,monospace" font-size="11" letter-spacing="1.5" font-weight="600">STATS</text>
  </g>
  <g opacity="0">
    <animate attributeName="opacity" from="0" to="1" begin="0.25s" dur="0.35s" fill="freeze"/>
    <rect x="28" y="116" width="185.33333333333334" height="52" rx="8" fill="#d1d5db" fill-opacity="0.08" stroke="#d1d5db" stroke-opacity="0.4"/><polygon points="48.0,122.0 53.3,134.7 67.0,135.8 56.6,144.8 59.8,158.2 48.0,151.0 36.2,158.2 39.4,144.8 29.0,135.8 42.7,134.7" fill="#15803d"/><text x="64" y="140" fill="#111827" font-family="'Cascadia Code','Fira Code','JetBrains Mono',Consolas,monospace" font-size="17" font-weight="700">35</text><text x="64" y="156" fill="#92400e" font-family="'Cascadia Code','Fira Code','JetBrains Mono',Consolas,monospace" font-size="9.5" letter-spacing="1">STARS</text>
  </g>
  <g opacity="0">
    <animate attributeName="opacity" from="0" to="1" begin="0.30s" dur="0.35s" fill="freeze"/>
    <rect x="227.33333333333334" y="116" width="185.33333333333334" height="52" rx="8" fill="#d1d5db" fill-opacity="0.08" stroke="#d1d5db" stroke-opacity="0.4"/><circle cx="241.73333333333335" cy="135.6" r="2.8000000000000003" fill="none" stroke="#15803d" stroke-width="1.4"/>
    <circle cx="252.93333333333334" cy="135.6" r="2.8000000000000003" fill="none" stroke="#15803d" stroke-width="1.4"/>
    <circle cx="247.33333333333334" cy="148.4" r="2.8000000000000003" fill="none" stroke="#15803d" stroke-width="1.4"/>
    <path d="M241.73333333333335,138.4 V142 H252.93333333333334 V138.4" fill="none" stroke="#15803d" stroke-width="1.4"/>
    <path d="M247.33333333333334,142 V145.6" fill="none" stroke="#15803d" stroke-width="1.4"/><text x="263.33333333333337" y="140" fill="#111827" font-family="'Cascadia Code','Fira Code','JetBrains Mono',Consolas,monospace" font-size="17" font-weight="700">4</text><text x="263.33333333333337" y="156" fill="#92400e" font-family="'Cascadia Code','Fira Code','JetBrains Mono',Consolas,monospace" font-size="9.5" letter-spacing="1">FORKS</text>
  </g>
  <g opacity="0">
    <animate attributeName="opacity" from="0" to="1" begin="0.35s" dur="0.35s" fill="freeze"/>
    <rect x="426.6666666666667" y="116" width="185.33333333333334" height="52" rx="8" fill="#d1d5db" fill-opacity="0.08" stroke="#d1d5db" stroke-opacity="0.4"/><rect x="438.6666666666667" y="136" width="16" height="12" rx="2" fill="none" stroke="#15803d" stroke-width="1.4"/>
    <rect x="438.6666666666667" y="133" width="6.4" height="4" rx="1.5" fill="#15803d"/><text x="462.6666666666667" y="140" fill="#111827" font-family="'Cascadia Code','Fira Code','JetBrains Mono',Consolas,monospace" font-size="17" font-weight="700">64</text><text x="462.6666666666667" y="156" fill="#92400e" font-family="'Cascadia Code','Fira Code','JetBrains Mono',Consolas,monospace" font-size="9.5" letter-spacing="1">REPOS</text>
  </g>
  <g opacity="0">
    <animate attributeName="opacity" from="0" to="1" begin="0.40s" dur="0.35s" fill="freeze"/>
    <rect x="28" y="178" width="185.33333333333334" height="52" rx="8" fill="#d1d5db" fill-opacity="0.08" stroke="#d1d5db" stroke-opacity="0.4"/><circle cx="44.8" cy="202" r="3.2" fill="none" stroke="#15803d" stroke-width="1.4"/>
    <circle cx="52" cy="206.4" r="2.6" fill="#15803d"/><text x="64" y="202" fill="#111827" font-family="'Cascadia Code','Fira Code','JetBrains Mono',Consolas,monospace" font-size="17" font-weight="700">17</text><text x="64" y="218" fill="#92400e" font-family="'Cascadia Code','Fira Code','JetBrains Mono',Consolas,monospace" font-size="9.5" letter-spacing="1">FOLLOWERS</text>
  </g>
  <g opacity="0">
    <animate attributeName="opacity" from="0" to="1" begin="0.45s" dur="0.35s" fill="freeze"/>
    <rect x="227.33333333333334" y="178" width="185.33333333333334" height="52" rx="8" fill="#d1d5db" fill-opacity="0.08" stroke="#d1d5db" stroke-opacity="0.4"/><circle cx="247.33333333333334" cy="204" r="4.4" fill="#f97316"/><text x="263.33333333333337" y="202" fill="#111827" font-family="'Cascadia Code','Fira Code','JetBrains Mono',Consolas,monospace" font-size="17" font-weight="700">7d</text><text x="263.33333333333337" y="218" fill="#92400e" font-family="'Cascadia Code','Fira Code','JetBrains Mono',Consolas,monospace" font-size="9.5" letter-spacing="1">STREAK</text>
  </g>
  <g opacity="0">
    <animate attributeName="opacity" from="0" to="1" begin="0.50s" dur="0.35s" fill="freeze"/>
    <rect x="426.6666666666667" y="178" width="185.33333333333334" height="52" rx="8" fill="#d1d5db" fill-opacity="0.08" stroke="#d1d5db" stroke-opacity="0.4"/><rect x="439.6666666666667" y="198" width="14" height="12" rx="2" fill="none" stroke="#15803d" stroke-width="1.4"/>
    <line x1="439.6666666666667" y1="201.6" x2="453.6666666666667" y2="201.6" stroke="#15803d" stroke-width="1.2"/><text x="462.6666666666667" y="202" fill="#111827" font-family="'Cascadia Code','Fira Code','JetBrains Mono',Consolas,monospace" font-size="17" font-weight="700">5y 6mo</text><text x="462.6666666666667" y="218" fill="#92400e" font-family="'Cascadia Code','Fira Code','JetBrains Mono',Consolas,monospace" font-size="9.5" letter-spacing="1">SINCE</text>
  </g>
  <g opacity="0">
    <animate attributeName="opacity" from="0" to="1" begin="0.55s" dur="0.35s" fill="freeze"/>
    <text x="28" y="260" fill="#d1d5db" font-family="'Cascadia Code','Fira Code','JetBrains Mono',Consolas,monospace" font-size="11" letter-spacing="1.5" font-weight="600">CONTRIBUTIONS</text><text x="612" y="260" text-anchor="end" fill="#92400e" font-family="'Cascadia Code','Fira Code','JetBrains Mono',Consolas,monospace" font-size="11">103 total</text>
  </g>
  <g opacity="0">
    <animate attributeName="opacity" from="0" to="1" begin="0.60s" dur="0.35s" fill="freeze"/>
    <rect x="28" y="274" width="10" height="10" rx="2" fill="#d1d5db" fill-opacity="0.35"/>
    <rect x="28" y="287" width="10" height="10" rx="2" fill="#d1d5db" fill-opacity="0.35"/>
    <rect x="28" y="300" width="10" height="10" rx="2" fill="#d1d5db" fill-opacity="0.35"/>
    <rect x="28" y="313" width="10" height="10" rx="2" fill="#d1d5db" fill-opacity="0.35"/>
    <rect x="41" y="274" width="10" height="10" rx="2" fill="#d1d5db" fill-opacity="0.35"/>
    <rect x="41" y="287" width="10" height="10" rx="2" fill="#d1d5db" fill-opacity="0.35"/>
    <rect x="41" y="300" width="10" height="10" rx="2" fill="#d1d5db" fill-opacity="0.35"/>
    <rect x="41" y="313" width="10" height="10" rx="2" fill="#d1d5db" fill-opacity="0.35"/>
    <rect x="41" y="326" width="10" height="10" rx="2" fill="#d1d5db" fill-opacity="0.35"/>
    <rect x="41" y="339" width="10" height="10" rx="2" fill="#d1d5db" fill-opacity="0.35"/>
    <rect x="41" y="352" width="10" height="10" rx="2" fill="#d1d5db" fill-opacity="0.35"/>
    <rect x="54" y="274" width="10" height="10" rx="2" fill="#d1d5db" fill-opacity="0.35"/>
    <rect x="54" y="287" width="10" height="10" rx="2" fill="#15803d" fill-opacity="0.4"/>
    <rect x="54" y="300" width="10" height="10" rx="2" fill="#15803d" fill-opacity="0.4"/>
    <rect x="54" y="313" width="10" height="10" rx="2" fill="#d1d5db" fill-opacity="0.35"/>
    <rect x="54" y="326" width="10" height="10" rx="2" fill="#d1d5db" fill-opacity="0.35"/>
    <rect x="54" y="339" width="10" height="10" rx="2" fill="#d1d5db" fill-opacity="0.35"/>
    <rect x="54" y="352" width="10" height="10" rx="2" fill="#d1d5db" fill-opacity="0.35"/>
    <rect x="67" y="274" width="10" height="10" rx="2" fill="#d1d5db" fill-opacity="0.35"/>
    <rect x="67" y="287" width="10" height="10" rx="2" fill="#15803d" fill-opacity="0.4"/>
    <rect x="67" y="300" width="10" height="10" rx="2" fill="#d1d5db" fill-opacity="0.35"/>
    <rect x="67" y="313" width="10" height="10" rx="2" fill="#d1d5db" fill-opacity="0.35"/>
    <rect x="67" y="326" width="10" height="10" rx="2" fill="#d1d5db" fill-opacity="0.35"/>
    <rect x="67" y="339" width="10" height="10" rx="2" fill="#d1d5db" fill-opacity="0.35"/>
    <rect x="67" y="352" width="10" height="10" rx="2" fill="#d1d5db" fill-opacity="0.35"/>
    <rect x="80" y="274" width="10" height="10" rx="2" fill="#d1d5db" fill-opacity="0.35"/>
    <rect x="80" y="287" width="10" height="10" rx="2" fill="#15803d" fill-opacity="0.6"/>
    <rect x="80" y="300" width="10" height="10" rx="2" fill="#15803d" fill-opacity="0.6"/>
    <rect x="80" y="313" width="10" height="10" rx="2" fill="#d1d5db" fill-opacity="0.35"/>
    <rect x="80" y="326" width="10" height="10" rx="2" fill="#15803d" fill-opacity="0.6"/>
    <rect x="80" y="339" width="10" height="10" rx="2" fill="#d1d5db" fill-opacity="0.35"/>
    <rect x="80" y="352" width="10" height="10" rx="2" fill="#d1d5db" fill-opacity="0.35"/>
    <rect x="93" y="274" width="10" height="10" rx="2" fill="#d1d5db" fill-opacity="0.35"/>
    <rect x="93" y="287" width="10" height="10" rx="2" fill="#15803d" fill-opacity="0.4"/>
    <rect x="93" y="300" width="10" height="10" rx="2" fill="#15803d" fill-opacity="0.6"/>
    <rect x="93" y="313" width="10" height="10" rx="2" fill="#15803d" fill-opacity="0.6"/>
    <rect x="93" y="326" width="10" height="10" rx="2" fill="#d1d5db" fill-opacity="0.35"/>
    <rect x="93" y="339" width="10" height="10" rx="2" fill="#15803d" fill-opacity="0.6"/>
    <rect x="93" y="352" width="10" height="10" rx="2" fill="#15803d" fill-opacity="0.8"/>
    <rect x="106" y="274" width="10" height="10" rx="2" fill="#d1d5db" fill-opacity="0.35"/>
    <rect x="106" y="287" width="10" height="10" rx="2" fill="#15803d" fill-opacity="0.6"/>
    <rect x="106" y="300" width="10" height="10" rx="2" fill="#15803d" fill-opacity="1"/>
    <rect x="106" y="313" width="10" height="10" rx="2" fill="#d1d5db" fill-opacity="0.35"/>
    <rect x="106" y="326" width="10" height="10" rx="2" fill="#d1d5db" fill-opacity="0.35"/>
    <rect x="106" y="339" width="10" height="10" rx="2" fill="#d1d5db" fill-opacity="0.35"/>
    <rect x="106" y="352" width="10" height="10" rx="2" fill="#d1d5db" fill-opacity="0.35"/>
    <rect x="119" y="274" width="10" height="10" rx="2" fill="#d1d5db" fill-opacity="0.35"/>
    <rect x="119" y="287" width="10" height="10" rx="2" fill="#d1d5db" fill-opacity="0.35"/>
    <rect x="119" y="300" width="10" height="10" rx="2" fill="#d1d5db" fill-opacity="0.35"/>
    <rect x="119" y="313" width="10" height="10" rx="2" fill="#15803d" fill-opacity="0.4"/>
    <rect x="119" y="326" width="10" height="10" rx="2" fill="#d1d5db" fill-opacity="0.35"/>
    <rect x="119" y="339" width="10" height="10" rx="2" fill="#d1d5db" fill-opacity="0.35"/>
    <rect x="119" y="352" width="10" height="10" rx="2" fill="#d1d5db" fill-opacity="0.35"/>
    <rect x="132" y="274" width="10" height="10" rx="2" fill="#d1d5db" fill-opacity="0.35"/>
    <rect x="132" y="287" width="10" height="10" rx="2" fill="#d1d5db" fill-opacity="0.35"/>
    <rect x="132" y="300" width="10" height="10" rx="2" fill="#d1d5db" fill-opacity="0.35"/>
    <rect x="132" y="313" width="10" height="10" rx="2" fill="#d1d5db" fill-opacity="0.35"/>
    <rect x="132" y="326" width="10" height="10" rx="2" fill="#15803d" fill-opacity="0.6"/>
    <rect x="132" y="339" width="10" height="10" rx="2" fill="#15803d" fill-opacity="0.4"/>
    <rect x="132" y="352" width="10" height="10" rx="2" fill="#15803d" fill-opacity="0.6"/>
    <rect x="145" y="274" width="10" height="10" rx="2" fill="#15803d" fill-opacity="0.6"/>
    <rect x="145" y="287" width="10" height="10" rx="2" fill="#d1d5db" fill-opacity="0.35"/>
    <rect x="145" y="300" width="10" height="10" rx="2" fill="#d1d5db" fill-opacity="0.35"/>
    <rect x="145" y="313" width="10" height="10" rx="2" fill="#d1d5db" fill-opacity="0.35"/>
    <rect x="145" y="326" width="10" height="10" rx="2" fill="#d1d5db" fill-opacity="0.35"/>
    <rect x="145" y="339" width="10" height="10" rx="2" fill="#d1d5db" fill-opacity="0.35"/>
    <rect x="145" y="352" width="10" height="10" rx="2" fill="#d1d5db" fill-opacity="0.35"/>
    <rect x="158" y="274" width="10" height="10" rx="2" fill="#d1d5db" fill-opacity="0.35"/>
    <rect x="158" y="287" width="10" height="10" rx="2" fill="#d1d5db" fill-opacity="0.35"/>
    <rect x="158" y="300" width="10" height="10" rx="2" fill="#d1d5db" fill-opacity="0.35"/>
    <rect x="158" y="313" width="10" height="10" rx="2" fill="#d1d5db" fill-opacity="0.35"/>
    <rect x="158" y="326" width="10" height="10" rx="2" fill="#d1d5db" fill-opacity="0.35"/>
    <rect x="158" y="339" width="10" height="10" rx="2" fill="#d1d5db" fill-opacity="0.35"/>
    <rect x="158" y="352" width="10" height="10" rx="2" fill="#d1d5db" fill-opacity="0.35"/>
    <rect x="171" y="274" width="10" height="10" rx="2" fill="#d1d5db" fill-opacity="0.35"/>
    <rect x="171" y="287" width="10" height="10" rx="2" fill="#d1d5db" fill-opacity="0.35"/>
    <rect x="171" y="300" width="10" height="10" rx="2" fill="#d1d5db" fill-opacity="0.35"/>
    <rect x="171" y="313" width="10" height="10" rx="2" fill="#d1d5db" fill-opacity="0.35"/>
    <rect x="171" y="326" width="10" height="10" rx="2" fill="#d1d5db" fill-opacity="0.35"/>
    <rect x="171" y="339" width="10" height="10" rx="2" fill="#d1d5db" fill-opacity="0.35"/>
    <rect x="171" y="352" width="10" height="10" rx="2" fill="#d1d5db" fill-opacity="0.35"/>
    <rect x="184" y="274" width="10" height="10" rx="2" fill="#d1d5db" fill-opacity="0.35"/>
    <rect x="184" y="287" width="10" height="10" rx="2" fill="#d1d5db" fill-opacity="0.35"/>
    <rect x="184" y="300" width="10" height="10" rx="2" fill="#d1d5db" fill-opacity="0.35"/>
    <rect x="184" y="313" width="10" height="10" rx="2" fill="#d1d5db" fill-opacity="0.35"/>
    <rect x="184" y="326" width="10" height="10" rx="2" fill="#d1d5db" fill-opacity="0.35"/>
    <rect x="184" y="339" width="10" height="10" rx="2" fill="#d1d5db" fill-opacity="0.35"/>
    <rect x="184" y="352" width="10" height="10" rx="2" fill="#d1d5db" fill-opacity="0.35"/>
    <rect x="197" y="274" width="10" height="10" rx="2" fill="#d1d5db" fill-opacity="0.35"/>
    <rect x="197" y="287" width="10" height="10" rx="2" fill="#d1d5db" fill-opacity="0.35"/>
    <rect x="197" y="300" width="10" height="10" rx="2" fill="#d1d5db" fill-opacity="0.35"/>
    <rect x="197" y="313" width="10" height="10" rx="2" fill="#d1d5db" fill-opacity="0.35"/>
    <rect x="197" y="326" width="10" height="10" rx="2" fill="#d1d5db" fill-opacity="0.35"/>
    <rect x="197" y="339" width="10" height="10" rx="2" fill="#d1d5db" fill-opacity="0.35"/>
    <rect x="197" y="352" width="10" height="10" rx="2" fill="#d1d5db" fill-opacity="0.35"/>
    <rect x="210" y="274" width="10" height="10" rx="2" fill="#d1d5db" fill-opacity="0.35"/>
    <rect x="210" y="287" width="10" height="10" rx="2" fill="#d1d5db" fill-opacity="0.35"/>
    <rect x="210" y="300" width="10" height="10" rx="2" fill="#d1d5db" fill-opacity="0.35"/>
    <rect x="210" y="313" width="10" height="10" rx="2" fill="#d1d5db" fill-opacity="0.35"/>
    <rect x="210" y="326" width="10" height="10" rx="2" fill="#d1d5db" fill-opacity="0.35"/>
    <rect x="210" y="339" width="10" height="10" rx="2" fill="#d1d5db" fill-opacity="0.35"/>
    <rect x="210" y="352" width="10" height="10" rx="2" fill="#d1d5db" fill-opacity="0.35"/>
    <rect x="223" y="274" width="10" height="10" rx="2" fill="#d1d5db" fill-opacity="0.35"/>
    <rect x="223" y="287" width="10" height="10" rx="2" fill="#d1d5db" fill-opacity="0.35"/>
    <rect x="223" y="300" width="10" height="10" rx="2" fill="#d1d5db" fill-opacity="0.35"/>
    <rect x="223" y="313" width="10" height="10" rx="2" fill="#d1d5db" fill-opacity="0.35"/>
    <rect x="223" y="326" width="10" height="10" rx="2" fill="#d1d5db" fill-opacity="0.35"/>
    <rect x="223" y="339" width="10" height="10" rx="2" fill="#15803d" fill-opacity="0.4"/>
    <rect x="223" y="352" width="10" height="10" rx="2" fill="#d1d5db" fill-opacity="0.35"/>
    <rect x="236" y="274" width="10" height="10" rx="2" fill="#d1d5db" fill-opacity="0.35"/>
    <rect x="236" y="287" width="10" height="10" rx="2" fill="#d1d5db" fill-opacity="0.35"/>
    <rect x="236" y="300" width="10" height="10" rx="2" fill="#d1d5db" fill-opacity="0.35"/>
    <rect x="236" y="313" width="10" height="10" rx="2" fill="#d1d5db" fill-opacity="0.35"/>
    <rect x="236" y="326" width="10" height="10" rx="2" fill="#d1d5db" fill-opacity="0.35"/>
    <rect x="236" y="339" width="10" height="10" rx="2" fill="#d1d5db" fill-opacity="0.35"/>
    <rect x="236" y="352" width="10" height="10" rx="2" fill="#d1d5db" fill-opacity="0.35"/>
    <rect x="249" y="274" width="10" height="10" rx="2" fill="#d1d5db" fill-opacity="0.35"/>
    <rect x="249" y="287" width="10" height="10" rx="2" fill="#d1d5db" fill-opacity="0.35"/>
    <rect x="249" y="300" width="10" height="10" rx="2" fill="#d1d5db" fill-opacity="0.35"/>
    <rect x="249" y="313" width="10" height="10" rx="2" fill="#d1d5db" fill-opacity="0.35"/>
    <rect x="249" y="326" width="10" height="10" rx="2" fill="#d1d5db" fill-opacity="0.35"/>
    <rect x="249" y="339" width="10" height="10" rx="2" fill="#d1d5db" fill-opacity="0.35"/>
    <rect x="249" y="352" width="10" height="10" rx="2" fill="#d1d5db" fill-opacity="0.35"/>
    <rect x="262" y="274" width="10" height="10" rx="2" fill="#d1d5db" fill-opacity="0.35"/>
    <rect x="262" y="287" width="10" height="10" rx="2" fill="#d1d5db" fill-opacity="0.35"/>
    <rect x="262" y="300" width="10" height="10" rx="2" fill="#d1d5db" fill-opacity="0.35"/>
    <rect x="262" y="313" width="10" height="10" rx="2" fill="#d1d5db" fill-opacity="0.35"/>
    <rect x="262" y="326" width="10" height="10" rx="2" fill="#d1d5db" fill-opacity="0.35"/>
    <rect x="262" y="339" width="10" height="10" rx="2" fill="#d1d5db" fill-opacity="0.35"/>
    <rect x="262" y="352" width="10" height="10" rx="2" fill="#d1d5db" fill-opacity="0.35"/>
    <rect x="275" y="274" width="10" height="10" rx="2" fill="#d1d5db" fill-opacity="0.35"/>
    <rect x="275" y="287" width="10" height="10" rx="2" fill="#d1d5db" fill-opacity="0.35"/>
    <rect x="275" y="300" width="10" height="10" rx="2" fill="#d1d5db" fill-opacity="0.35"/>
    <rect x="275" y="313" width="10" height="10" rx="2" fill="#15803d" fill-opacity="0.6"/>
    <rect x="275" y="326" width="10" height="10" rx="2" fill="#15803d" fill-opacity="0.8"/>
    <rect x="275" y="339" width="10" height="10" rx="2" fill="#15803d" fill-opacity="0.6"/>
    <rect x="275" y="352" width="10" height="10" rx="2" fill="#15803d" fill-opacity="0.8"/>
    <rect x="288" y="274" width="10" height="10" rx="2" fill="#15803d" fill-opacity="1"/>
    <rect x="288" y="287" width="10" height="10" rx="2" fill="#15803d" fill-opacity="0.4"/>
    <rect x="288" y="300" width="10" height="10" rx="2" fill="#15803d" fill-opacity="0.4"/>
    <rect x="288" y="313" width="10" height="10" rx="2" fill="#d1d5db" fill-opacity="0.35"/>
  </g>
  <g opacity="0">
    <animate attributeName="opacity" from="0" to="1" begin="0.60s" dur="0.35s" fill="freeze"/>
    <text x="28" y="391" fill="#d1d5db" font-family="'Cascadia Code','Fira Code','JetBrains Mono',Consolas,monospace" font-size="11" letter-spacing="1.5" font-weight="600">LANGUAGES</text>
  </g>
  <g opacity="0">
    <animate attributeName="opacity" from="0" to="1" begin="0.60s" dur="0.35s" fill="freeze"/>
    <clipPath id="lang-clip"><rect x="28" y="407" width="584" height="12" rx="6"/></clipPath><g clip-path="url(#lang-clip)"><rect x="28" y="407" width="227.11111111111111" height="12" fill="#3178c6"/><rect x="255.11111111111111" y="407" width="178.44444444444446" height="12" fill="#f1e05a"/><rect x="433.55555555555554" y="407" width="64.88888888888889" height="12" fill="#563d7c"/><rect x="498.44444444444446" y="407" width="64.88888888888889" height="12" fill="#3572A5"/><rect x="563.3333333333334" y="407" width="48.666666666666664" height="12" fill="#00B4AB"/></g>
  </g>
  <g opacity="0">
    <animate attributeName="opacity" from="0" to="1" begin="0.60s" dur="0.35s" fill="freeze"/>
    <circle cx="32" cy="431" r="4" fill="#3178c6"/>
    <text x="40" y="435" fill="#111827" font-family="'Cascadia Code','Fira Code','JetBrains Mono',Consolas,monospace" font-size="11">TypeScript</text>
    <circle cx="130" cy="431" r="4" fill="#f1e05a"/>
    <text x="138" y="435" fill="#111827" font-family="'Cascadia Code','Fira Code','JetBrains Mono',Consolas,monospace" font-size="11">JavaScript</text>
    <circle cx="228" cy="431" r="4" fill="#563d7c"/>
    <text x="236" y="435" fill="#111827" font-family="'Cascadia Code','Fira Code','JetBrains Mono',Consolas,monospace" font-size="11">CSS</text>
    <circle cx="279.8" cy="431" r="4" fill="#3572A5"/>
    <text x="287.8" y="435" fill="#111827" font-family="'Cascadia Code','Fira Code','JetBrains Mono',Consolas,monospace" font-size="11">Python</text>
    <circle cx="351.4" cy="431" r="4" fill="#00B4AB"/>
    <text x="359.4" y="435" fill="#111827" font-family="'Cascadia Code','Fira Code','JetBrains Mono',Consolas,monospace" font-size="11">Dart</text>
  </g>
  <g opacity="0">
    <animate attributeName="opacity" from="0" to="1" begin="0.60s" dur="0.35s" fill="freeze"/>
    <text x="28" y="461" fill="#15803d" font-family="'Cascadia Code','Fira Code','JetBrains Mono',Consolas,monospace" font-size="14">aryan@kumar:~$</text><rect x="155.60000000000002" y="447" width="9" height="18" fill="#15803d"><animate attributeName="opacity" values="1;1;0;0;1" keyTimes="0;0.4;0.5;0.9;1" dur="1.2s" repeatCount="indefinite" /></rect>
  </g>
  <rect x="1" y="1" width="638" height="483" rx="11" fill="url(#stats-vignette)"/>
  <rect x="1" y="1" width="638" height="483" rx="11" fill="url(#stats-scanlines)"/>
</svg>
